<?xml version="1.0" encoding="UTF-8"?>
<svg xmlns="http://www.w3.org/2000/svg" xmlns:xlink="http://www.w3.org/1999/xlink" width="32px" height="32px" viewBox="0 0 32 32" version="1.1">
<g id="surface1">
<path style="fill-rule:nonzero;fill:rgb(36.470588%,52.941176%,100%);fill-opacity:1;stroke-width:0.00024;stroke-linecap:butt;stroke-linejoin:miter;stroke:rgb(36.470588%,52.941176%,100%);stroke-opacity:1;stroke-miterlimit:4;" d="M 17.671875 5.607422 C 15.782227 4.716797 13.892578 3.826172 12.00293 2.932617 L 0.137695 8.525391 L 2.167969 9.503906 L 2.000977 9.530273 L 2.000977 20.000977 L 3 20.000977 L 3 10.374023 L 3.720703 10.250977 L 3.999023 10.385742 L 3.999023 15.673828 C 3.999023 16.587891 9.205078 19.207031 10.248047 19.722656 C 11.349609 20.261719 12.638672 20.25293 13.728516 19.696289 C 20.000977 16.485352 20.000977 15.893555 20.000977 15.673828 L 20.000977 10.385742 L 23.853516 8.52832 C 23.853516 8.52832 20.053711 6.726562 17.671875 5.607422 Z M 18.999023 15.503906 C 17.165039 16.725586 15.251953 17.830078 13.274414 18.805664 C 12.46582 19.21875 11.507812 19.227539 10.693359 18.826172 C 8.707031 17.882812 6.802734 16.775391 5.000977 15.521484 L 5.000977 10.866211 L 12 14.238281 L 18.999023 10.866211 Z M 12 13.130859 L 5.416992 9.958008 L 11.885742 8.841797 L 11.71582 7.857422 L 3.864258 9.210938 L 2.460938 8.53418 L 12 4.040039 C 12.823242 4.432617 20.522461 8.053711 21.541992 8.53418 Z M 12 13.130859 " transform="matrix(1.333333,0,0,1.333333,0,0)"/>
<path style="fill:none;stroke-width:0.00024;stroke-linecap:butt;stroke-linejoin:miter;stroke:rgb(36.470588%,52.941176%,100%);stroke-opacity:1;stroke-miterlimit:4;" d="M 0 0 L 24 0 L 24 24 L 0 24 Z M 0 0 " transform="matrix(1.333333,0,0,1.333333,0,0)"/>
</g>
</svg>
